<svg xmlns="http://www.w3.org/2000/svg" viewBox="0 0 29.68 35.43"><defs><style>.cls-1{fill:none;stroke-width:1.01px;}.cls-1,.cls-2{stroke:#fff;stroke-linecap:round;stroke-linejoin:round;}.cls-2,.cls-3{fill:#fff;}.cls-2{stroke-width:1.06px;}</style></defs><title>IconBatchEditMask@1x</title><g id="Layer_2" data-name="Layer 2"><g id="Layer_1-2" data-name="Layer 1"><polyline class="cls-1" points="25.37 31.58 10.95 34.93 0.53 30.66"/><polyline class="cls-1" points="25.37 29.46 10.95 32.81 0.53 28.54"/><polyline class="cls-1" points="25.37 27.35 10.95 30.69 0.53 26.42"/><polyline class="cls-1" points="25.37 25.23 10.95 28.57 0.53 24.3"/><polygon class="cls-2" points="25.37 23.11 10.95 26.45 0.53 22.18 14.36 19.27 25.37 23.11"/><polygon class="cls-3" points="27.6 5.28 20.28 14.85 16.18 16.86 17.1 12.41 24.45 2.82 27.6 5.28"/><path class="cls-3" d="M29.45,2.86,28.21,4.48,25.05,2,26.27.43a1.06,1.06,0,0,1,1.51-.2l1.47,1.12A1.08,1.08,0,0,1,29.45,2.86Z"/></g></g></svg>