<svg xmlns="http://www.w3.org/2000/svg" viewBox="0 0 40 39.88"><defs><style>.cls-1{fill:#ff4242;}.cls-2,.cls-5{fill:none;stroke-width:1.01px;}.cls-2,.cls-3{stroke:#fff;}.cls-2,.cls-3,.cls-5{stroke-linecap:round;stroke-linejoin:round;}.cls-3,.cls-4{fill:#fff;}.cls-3{stroke-width:1.06px;}.cls-5{stroke:#ff4242;}</style></defs><title>Rev1BatchEdit_1@1x</title><g id="Layer_2" data-name="Layer 2"><g id="Layer_1-2" data-name="Layer 1"><rect class="cls-1" width="40" height="39.88" rx="5.46" ry="5.46"/><polyline class="cls-2" points="31.3 34.17 16.88 37.52 6.46 33.24"/><polyline class="cls-2" points="31.3 32.05 16.88 35.4 6.46 31.12"/><polyline class="cls-2" points="31.3 29.93 16.88 33.28 6.46 29"/><polyline class="cls-2" points="31.3 27.81 16.88 31.16 6.46 26.88"/><polygon class="cls-3" points="31.3 25.69 16.88 29.04 6.46 24.76 20.29 21.86 31.3 25.69"/><path class="cls-4" d="M35.38,5.44l-9.16,12-4.11,2L23,15,32.2,3a1.08,1.08,0,0,1,1.51-.2l1.47,1.12A1.08,1.08,0,0,1,35.38,5.44Z"/><line class="cls-5" x1="30.21" y1="4.65" x2="34.74" y2="8.17"/></g></g></svg>